#!OML:ASF E:\Mandelcareful walks\Project 1\Capture day 1\Session 1\Subject1.ASF
:FULLY-SPECIFIED
:DEGREES
31
root 11.9615 16.3538 -0.74264 217.503 -85.206 -207.034
lowerback 21.274 -1.82024 2.15851
upperback 4.34288 -2.0872 1.50085
thorax -7.15682 -1.16532 0.970786
lowerneck -21.2516 -9.08114 -12.4262
upperneck 19.3324 -10.1038 5.96565
head 10.6706 -4.87542 2.53386
rclavicle 1.19271e-014 -1.19271e-014
rhumerus -16.1507 0.416615 -80.6377
rradius 31.6067
rwrist -10.0938
rhand -10.7792 -28.8029
rfingers 7.12502
rthumb 15.2331 -58.222
lclavicle 1.19271e-014 -1.19271e-014
lhumerus -24.4134 -30.0246 99.9252
lradius 48.7126
lwrist 16.934
lhand -17.2178 -14.6461
lfingers 7.12502
lthumb 9.02522 15.1408
rfemur -31.1626 -16.4524 12.7946
rtibia 38.783
rfoot -15.0683 -9.86165
rtoes -2.0443
lfemur -26.8322 9.28014 -5.81451
ltibia 30.6712
lfoot -8.18393 9.72051
ltoes -12.1874
32
root 11.9597 16.3591 -0.727752 216.863 -85.2023 -206.342
lowerback 21.1545 -1.76775 2.2755
upperback 4.3583 -1.99689 1.5136
thorax -7.07996 -1.12409 0.88889
lowerneck -21.8405 -8.64417 -12
upperneck 20.1787 -9.49093 5.50662
head 10.9791 -4.61665 2.39098
rclavicle -1.51076e-014 4.6118e-014
rhumerus -16.1617 0.425671 -80.5261
rradius 31.7695
rwrist -10.2406
rhand -10.7287 -29.5301
rfingers 7.12502
rthumb 15.2818 -58.9455
lclavicle -1.51076e-014 4.6118e-014
lhumerus -24.0869 -29.8648 99.5644
lradius 48.4736
lwrist 16.3048
lhand -17.7757 -14.8464
lfingers 7.12502
lthumb 8.48679 14.9631
rfemur -31.1245 -16.3319 12.7965
rtibia 38.6057
rfoot -14.9538 -9.99879
rtoes -2.29242
lfemur -26.9102 9.29274 -5.81982
ltibia 30.717
lfoot -8.21799 9.74529
ltoes -12.22
33
root 11.956 16.3608 -0.710915 217.616 -85.2288 -207.06
lowerback 20.9431 -1.74082 2.29087
upperback 4.44003 -1.96982 1.52652
thorax -6.87941 -1.1121 0.876972
lowerneck -22.6751 -8.0553 -11.3647
upperneck 21.2191 -8.65369 4.81952
head 11.3733 -4.27018 2.16507
rclavicle 1.23246e-014 -1.66979e-014
rhumerus -15.9806 0.401189 -80.4273
rradius 31.8054
rwrist -10.3729
rhand -10.7223 -30.1564
rfingers 7.12502
rthumb 15.288 -59.5714
lclavicle 1.23246e-014 -1.66979e-014
lhumerus -23.5099 -29.7017 99.0173
lradius 48.0408
lwrist 16.049
lhand -18.2703 -15.1891
lfingers 7.12502
lthumb 8.00945 14.6391
rfemur -31.0691 -16.3355 12.6912
rtibia 38.501
rfoot -14.9008 -10.1226
rtoes -2.66223
lfemur -27.0324 9.33348 -5.95384
ltibia 30.8482
lfoot -8.30024 9.64972
ltoes -12.3542
34
root 11.9629 16.3615 -0.690641 220.505 -85.3459 -209.825
lowerback 20.8297 -1.7821 2.18692
upperback 4.43533 -2.0465 1.53011
thorax -6.82179 -1.146 0.955918
lowerneck -23.4133 -7.2601 -10.5849
upperneck 22.2396 -7.58511 4.11748
head 11.735 -3.81956 1.95529
rclavicle 4.17448e-014 -3.18055e-014
rhumerus -15.7235 0.205157 -80.3719
rradius 31.5475
rwrist -10.3405
rhand -10.8153 -29.9215
rfingers 7.12502
rthumb 15.1985 -59.3433
lclavicle 4.17448e-014 -3.18055e-014
lhumerus -22.8372 -29.3126 98.3239
lradius 47.4315
lwrist 15.887
lhand -18.7861 -15.442
lfingers 7.12502
lthumb 7.51164 14.4046
rfemur -31.1413 -16.516 12.5201
rtibia 38.4415
rfoot -14.8382 -10.2267
rtoes -2.77339
lfemur -27.3976 9.4049 -6.23836
ltibia 31.0027
lfoot -8.19437 9.43164
ltoes -12.523
35
root 11.9569 16.3606 -0.659834 220.503 -85.3262 -209.928
lowerback 20.9658 -1.75984 2.16516
upperback 4.38416 -2.01432 1.53426
thorax -6.94832 -1.12954 0.970758
lowerneck -23.7057 -6.45979 -10.0477
upperneck 23.1707 -6.55532 3.70418
head 12.0262 -3.38311 1.89496
rclavicle -2.5842e-014 7.95139e-015
rhumerus -15.6919 0.0122679 -80.3112
rradius 31.2112
rwrist -10.2291
rhand -11.0265 -29.3563
rfingers 7.12502
rthumb 14.995 -58.7934
lclavicle -2.5842e-014 7.95139e-015
lhumerus -22.4259 -28.649 97.7619
lradius 46.7533
lwrist 16.0478
lhand -19.2094 -15.6477
lfingers 7.12502
lthumb 7.10299 14.2131
rfemur -30.9176 -16.5305 12.3434
rtibia 38.2783
rfoot -14.7395 -10.2389
rtoes -2.70834
lfemur -27.3765 9.50838 -6.39669
ltibia 31.1405
lfoot -8.35931 9.22585
ltoes -13.7533
36
root 11.9546 16.358 -0.632919 223.328 -85.5393 -212.877
lowerback 21.1469 -1.80583 2.1586
upperback 4.2864 -2.06163 1.53591
thorax -7.1502 -1.15012 0.998321
lowerneck -24.1663 -5.74467 -9.5031
upperneck 24.465 -5.61316 3.18212
head 12.5124 -3.00937 1.77256
rclavicle -4.77083e-015 -2.54444e-014
rhumerus -15.8832 -0.0722687 -80.2237
rradius 31.2033
rwrist -10.2897
rhand -11.0716 -29.0273
rfingers 7.12502
rthumb 14.9515 -58.4676
lclavicle -4.77083e-015 -2.54444e-014
lhumerus -22.2322 -27.9793 97.289
lradius 46.1321
lwrist 16.5029
lhand -19.5322 -15.7325
lfingers 7.12502
lthumb 6.79144 14.1385
rfemur -30.511 -16.7427 12.0949
rtibia 38.014
rfoot -14.7014 -10.2914
rtoes -2.2955
lfemur -27.4295 9.40798 -6.60125
ltibia 31.2929
lfoot -8.55869 8.90434
ltoes -14.8235
37
root 11.9126 16.366 -0.587471 219.113 -85.1806 -209.106
lowerback 21.2489 -1.62104 2.35636
upperback 4.42739 -1.80137 1.37841
thorax -7.06012 -1.0338 0.645731
lowerneck -24.7848 -4.91292 -8.70605
upperneck 25.9967 -4.55549 2.54551
head 13.1321 -2.58793 1.58435
rclavicle 3.93594e-014 -2.94201e-014
rhumerus -16.1702 -0.109548 -80.23
rradius 31.5383
rwrist -10.5162
rhand -10.9931 -29.0665
rfingers 7.12502
rthumb 15.0271 -58.5012
lclavicle 3.93594e-014 -2.94201e-014
lhumerus -22.099 -27.3165 96.6782
lradius 45.5848
lwrist 16.7247
lhand -20.1115 -15.7269
lfingers 7.12502
lthumb 6.23218 14.1615
rfemur -29.6599 -16.4671 11.7653
rtibia 37.4841
rfoot -14.554 -10.0007
rtoes -1.91802
lfemur -26.7011 9.30818 -6.62963
ltibia 31.5332
lfoot -8.92836 9.31403
ltoes -13.7504
